HIERARCHY
ROOT Pelvis
{
	OFFSET 0.000000 0.000000 0.000000
	CHANNELS 6 Xposition Yposition Zposition Zrotation Yrotation Xrotation 
	JOINT Left_hip
	{
		OFFSET 0.068973 -0.091024 -0.007589
		CHANNELS 3 Zrotation Yrotation Xrotation
		JOINT Left_knee
		{
			OFFSET 0.036482 -0.391037 -0.003979
			CHANNELS 3 Zrotation Yrotation Xrotation
			JOINT Left_ankle
			{
				OFFSET -0.012239 -0.415469 -0.043440
				CHANNELS 3 Zrotation Yrotation Xrotation
				JOINT Left_foot
				{
					OFFSET 0.023806 -0.058558 0.118702
					CHANNELS 3 Zrotation Yrotation Xrotation
					End Site
					{
						OFFSET 0.000000 0.000000 0.000000
					}
				}
			}
		}
	}
	JOINT Right_hip
	{
		OFFSET -0.066552 -0.090468 -0.003847
		CHANNELS 3 Zrotation Yrotation Xrotation
		JOINT Right_knee
		{
			OFFSET -0.042435 -0.398340 -0.006400
			CHANNELS 3 Zrotation Yrotation Xrotation
			JOINT Right_ankle
			{
				OFFSET 0.014931 -0.415421 -0.041327
				CHANNELS 3 Zrotation Yrotation Xrotation
				JOINT Right_foot
				{
					OFFSET -0.021472 -0.049410 0.121889
					CHANNELS 3 Zrotation Yrotation Xrotation
					End Site
					{
						OFFSET 0.000000 0.000000 0.000000
					}
				}
			}
		}
	}
	JOINT Spine1
	{
		OFFSET -0.002904 0.105700 -0.022855
		CHANNELS 3 Zrotation Yrotation Xrotation
		JOINT Spine2
		{
			OFFSET 0.004179 0.132554 -0.002501
			CHANNELS 3 Zrotation Yrotation Xrotation
			JOINT Spine3
			{
				OFFSET 0.001987 0.049603 0.025988
				CHANNELS 3 Zrotation Yrotation Xrotation
				JOINT Neck
				{
					OFFSET -0.003935 0.211336 -0.045638
					CHANNELS 3 Zrotation Yrotation Xrotation
					JOINT Head
					{
						OFFSET 0.003906 0.065991 0.051018
						CHANNELS 3 Zrotation Yrotation Xrotation
						End Site
						{
							OFFSET 0.000000 0.000000 0.000000
						}
					}
				}
				JOINT Left_collar
				{
					OFFSET 0.072882 0.117751 -0.036270
					CHANNELS 3 Zrotation Yrotation Xrotation
					JOINT Left_shoulder
					{
						OFFSET 0.082118 0.032630 -0.005771
						CHANNELS 3 Zrotation Yrotation Xrotation
						JOINT Left_elbow
						{
							OFFSET 0.263305 -0.015144 -0.028095
							CHANNELS 3 Zrotation Yrotation Xrotation
							JOINT Left_wrist
							{
								OFFSET 0.250741 0.010115 -0.000759
								CHANNELS 3 Zrotation Yrotation Xrotation
								JOINT Left_palm
								{
									OFFSET 0.080683 -0.009989 -0.013613
									CHANNELS 3 Zrotation Yrotation Xrotation
									End Site
									{
										OFFSET 0.000000 0.000000 0.000000
									}
								}
							}
						}
					}
				}
				JOINT Right_collar
				{
					OFFSET -0.074811 0.116132 -0.040385
					CHANNELS 3 Zrotation Yrotation Xrotation
					JOINT Right_shoulder
					{
						OFFSET -0.085089 0.032943 -0.007484
						CHANNELS 3 Zrotation Yrotation Xrotation
						JOINT Right_elbow
						{
							OFFSET -0.254763 -0.014219 -0.020321
							CHANNELS 3 Zrotation Yrotation Xrotation
							JOINT Right_wrist
							{
								OFFSET -0.256597 0.009233 -0.005063
								CHANNELS 3 Zrotation Yrotation Xrotation
								JOINT Right_palm
								{
									OFFSET -0.080528 -0.007219 -0.010379
									CHANNELS 3 Zrotation Yrotation Xrotation
									End Site
									{
										OFFSET 0.000000 0.000000 0.000000
									}
								}
							}
						}
					}
				}
			}
		}
	}
}
MOTION
Frames: 10
Frame Time: 0.100000
0.000000 0.000000 0.000000 -178.326040 -12.111955 -18.293071 7.164811 8.441924 17.301153 -3.297230 6.433718 -7.263138 -3.393784 10.989368 -0.360798 4.488232 6.373755 -3.523699 -4.729629 -5.551459 17.906534 3.035009 -3.268141 -3.489570 6.707602 -4.154652 -0.304851 -2.218641 -2.592760 3.510174 1.185468 0.135634 -4.520734 1.474040 -4.166261 10.623108 1.678673 -2.410685 0.813712 2.880638 16.815214 14.644278 -3.424669 9.642622 0.276156 -24.501668 -3.469298 9.252579 -52.805940 -2.337368 10.177076 1.322637 -25.294829 18.198548 -9.129677 -10.368391 9.061732 -10.570465 -2.987822 -23.341305 23.321599 5.910879 9.012072 51.851246 4.031889 11.665593 -8.947316 20.524326 1.661609 4.365673 5.942678 2.662681 11.029193 3.719164 -9.978329 
-0.002968 0.000393 0.003586 -178.339708 -12.589810 -18.416795 7.012198 8.291873 16.672567 -3.219875 6.702724 -5.183205 -3.163077 11.301310 -1.600387 4.433220 6.436682 -3.658143 -5.063878 -4.979556 18.480418 3.167827 -2.423934 -3.950314 6.953399 -3.982130 -0.281658 -2.355776 -2.603886 3.307928 1.389603 0.401011 -4.617852 1.461683 -4.054860 11.125541 1.537117 -2.162125 0.922311 2.866971 16.463182 14.627552 -3.336908 9.273780 -0.301579 -24.518889 -3.076583 9.327289 -52.954070 -1.809554 9.898727 1.429915 -24.183096 18.028012 -9.751320 -10.486002 9.268127 -10.285167 -2.804433 -23.347157 23.182927 6.038934 9.129524 51.726654 4.033522 11.505913 -8.687623 19.853292 1.723353 4.421667 6.009007 3.065741 10.908688 3.550299 -9.928019 
-0.012063 0.000381 0.010913 -177.996267 -14.609085 -18.160568 6.249673 8.441612 15.738385 -3.079479 7.497446 -2.769706 -2.583661 12.177097 -3.013744 4.156866 6.369704 -3.809449 -5.580961 -4.263960 17.954832 2.769820 -1.398301 -3.724320 6.721295 -3.455321 -0.256448 -1.510102 -2.923358 3.411208 2.350013 0.740596 -4.949787 1.530332 -3.705957 11.592134 1.003244 -1.473145 0.427305 2.562657 14.963784 15.150142 -3.292227 8.575163 -0.465991 -24.844436 -2.337797 8.901962 -53.462177 -1.292613 10.635874 1.601294 -22.988450 17.678252 -10.507714 -10.783324 9.919234 -10.222051 -2.984164 -23.116077 22.883591 6.192302 9.082143 51.116767 3.935906 11.682714 -8.097179 18.842748 1.620339 4.621563 6.344911 3.473179 11.012886 3.634751 -9.883778 
-0.026797 -0.000143 0.019784 -177.639730 -16.926683 -17.808596 5.194539 9.069158 16.622549 -3.289594 7.797510 -3.778220 -1.954143 12.813321 -3.632466 3.865418 6.521820 -3.525244 -6.232345 -3.557555 15.749267 1.922474 -0.781268 -0.709243 7.119042 -2.864572 -0.702284 -1.680040 -2.878144 3.164815 3.346493 0.131293 -4.701832 1.906413 -3.832878 11.664927 0.738588 -1.360366 0.137925 2.102821 13.500713 15.668884 -3.448108 7.950607 -0.865321 -24.955278 -2.568129 8.814595 -54.583678 -0.965909 11.389787 1.290365 -22.558351 17.696387 -10.382368 -10.250437 10.343347 -10.711180 -3.646064 -23.533989 22.061358 6.627773 8.528183 50.195788 4.317820 11.765286 -8.151506 19.030860 1.119517 4.742035 6.247382 4.119332 11.550127 3.974062 -10.534031 
-0.037847 0.001334 0.024027 -177.718381 -17.459322 -18.064526 4.613824 9.385376 19.016171 -3.665181 5.918998 -6.569994 -0.815825 12.943144 -4.241172 3.644455 7.279185 -2.826527 -6.453582 -2.530998 8.504950 0.755652 -1.292909 13.394443 7.380804 -2.736207 -2.581515 -2.313783 -2.251200 1.764177 2.454373 -2.015225 -3.047488 2.917518 -4.615881 13.023114 1.127459 -2.358955 -0.491239 2.375346 13.277552 15.599843 -3.559395 7.413319 -2.015078 -24.772710 -4.712586 9.145530 -53.885338 -1.121925 11.913626 0.286925 -24.911434 17.096296 -8.770861 -8.902508 10.944868 -11.927879 -4.932973 -24.160996 22.325980 7.697108 7.535958 48.732532 4.470672 11.766755 -9.228090 21.844024 -0.053960 4.877941 6.017988 4.944529 12.798897 4.547402 -11.118099 
-0.040413 0.001611 0.025487 -178.437154 -16.434218 -17.683416 4.409286 9.147563 19.199741 -2.962145 3.572438 -7.314388 0.931011 13.316775 -4.110172 3.210646 9.007642 -3.631295 -6.887556 -0.869707 -5.858438 0.778353 -1.913499 36.739357 8.305652 -2.908140 -1.070272 -3.468356 -0.876760 -1.334260 -0.019065 -4.701646 -1.358532 4.133859 -5.397782 15.619764 1.276583 -3.606962 -1.636188 3.034879 13.466440 15.639834 -3.124973 5.735539 -2.968288 -22.603879 -6.801507 8.259234 -51.814437 -2.574743 13.326445 -0.357322 -25.716953 15.352592 -10.171368 -7.563195 14.352562 -13.234133 -6.803686 -23.863892 23.266740 8.148046 6.130937 49.305149 3.638002 12.925420 -9.945720 25.041661 -0.322834 6.337896 6.036566 6.526412 15.209342 5.567230 -11.225157 
-0.035149 -0.005042 0.036861 179.558334 -13.779422 -17.275429 6.366993 9.078611 19.531596 -2.062174 1.864223 -6.685306 0.248577 12.151487 -3.151392 2.057376 10.061519 -5.013105 -8.014915 -1.545855 -11.434423 0.543752 -4.403150 34.394204 8.011837 -3.891588 0.208089 -3.619547 -1.418697 -1.240699 -0.535764 -5.692034 0.720243 3.846504 -5.533421 15.827259 1.431952 -4.339288 -0.799549 2.236320 12.643199 16.702280 -1.850704 2.776582 -4.563961 -20.104969 -8.403423 7.634063 -49.655775 -6.588859 12.338612 2.741339 -25.264319 11.160469 -11.081419 -8.960447 14.689654 -12.359017 -5.729003 -22.741118 22.622506 7.867258 6.912200 53.472491 0.646158 12.889097 -10.301637 25.757201 0.768667 6.809016 6.771314 4.556943 14.764954 5.135627 -9.995141 
-0.023447 -0.006399 0.056477 179.145947 -10.943785 -17.116553 7.821969 8.513339 21.440693 -2.017345 0.693082 -7.755257 -1.469600 10.823858 -2.588956 1.129954 9.966184 -6.466368 -9.708678 -2.929582 -10.282521 0.758621 -5.499752 13.218573 9.043262 -3.988574 6.913193 -4.253035 -2.954812 -0.782699 -0.951807 -4.778615 2.171370 2.504268 -3.748167 14.794142 1.636188 -3.662498 1.383525 0.602913 10.109015 17.531617 0.456645 -0.880331 -5.306165 -16.936466 -7.240439 6.946965 -48.577517 -11.921332 10.026453 6.669093 -30.435179 8.103131 -11.027024 -14.643364 12.453405 -8.425563 -1.578718 -19.973413 21.013420 6.926898 9.552791 58.662898 -1.426998 12.374741 -8.430061 22.934565 4.013920 6.813455 7.943935 2.026649 10.371312 3.071070 -7.909064 
-0.001977 -0.005666 0.088999 179.750794 -7.852778 -16.779281 9.265603 7.421608 22.845600 -2.622042 -0.372742 -7.261351 -3.656062 9.662944 -3.106977 1.603663 9.589464 -7.634577 -10.383783 -3.860291 -7.253568 2.986868 -6.211928 -4.808306 9.052243 -2.981719 8.078488 -3.297820 -5.435121 0.531048 -0.994941 -3.339641 2.392658 1.031231 -1.395202 13.731278 1.505412 -2.552401 3.542933 0.509592 6.943836 20.113345 2.593983 -4.408194 -5.434544 -13.965369 -4.376075 6.637139 -48.359137 -14.751658 8.576306 8.975754 -41.202084 8.891507 -9.478331 -20.933292 9.413608 -4.118108 3.099639 -17.472934 18.529807 5.994069 12.061551 62.440745 -2.700373 12.430722 -5.178101 21.722213 10.171270 6.602086 9.443866 -0.135670 4.462146 0.322579 -5.273226 
0.036052 -0.007670 0.131793 -179.610145 -1.468471 -16.294900 9.742452 5.156227 21.758248 -1.334651 -2.714426 -3.796268 -4.621569 9.049274 -2.549115 2.539072 9.667021 -9.906225 -10.207503 -3.419539 -7.150799 1.496294 -6.473659 -0.805278 7.871846 -2.596607 9.791206 -1.145332 -7.441364 0.444556 -0.935753 -2.902480 0.833444 1.194352 -0.423549 13.872884 1.023191 -1.948110 4.109132 1.172693 2.862253 23.205084 3.798562 -7.097656 -5.416696 -10.624242 0.118829 5.277371 -47.985982 -13.570994 10.480302 6.250687 -54.042575 14.166097 -10.672880 -24.785091 9.115133 -3.354041 4.155330 -15.295145 15.260888 2.894827 11.455055 61.217185 -6.198215 12.973133 -2.689801 28.347964 15.382178 7.513798 12.128388 -1.168029 2.802368 -0.629362 -3.208209 
